<?xml version="1.0" encoding="utf-8"?>
<!-- Generator: Adobe Illustrator 16.0.0, SVG Export Plug-In . SVG Version: 6.00 Build 0)  -->
<!DOCTYPE svg PUBLIC "-//W3C//DTD SVG 1.1//EN" "http://www.w3.org/Graphics/SVG/1.1/DTD/svg11.dtd">
<svg version="1.1" id="Layer_1" xmlns="http://www.w3.org/2000/svg" xmlns:xlink="http://www.w3.org/1999/xlink" x="0px" y="0px"
	 width="1440px" height="1440.001px" viewBox="280 96 1440 1440.001" enable-background="new 280 96 1440 1440.001"
	 xml:space="preserve">
<path fill="#2C3E50" d="M664.224,427.426c0,29.15-23.632,52.8-52.784,52.8H332.782c-29.15,0-52.782-23.648-52.782-52.8V148.784
	C280,119.632,303.648,96,332.782,96h278.642c29.15,0,52.783,23.632,52.783,52.784v278.642H664.224z M1192.112,148.784
	c0-29.152-23.646-52.784-52.784-52.784h-278.64c-29.152,0-52.8,23.632-52.8,52.784v278.642c0,29.15,23.646,52.8,52.8,52.8h278.64
	c29.152,0,52.784-23.648,52.784-52.8V148.784z M1720,148.784c0-29.152-23.634-52.784-52.785-52.784h-278.64
	c-29.151,0-52.785,23.632-52.785,52.784v278.642c0,29.15,23.634,52.8,52.785,52.8h278.64c29.151,0,52.785-23.648,52.785-52.8
	V148.784z M664.224,676.674c0-29.138-23.632-52.784-52.784-52.784H332.782c-29.136,0-52.782,23.646-52.782,52.784v278.64
	c0,29.152,23.646,52.8,52.782,52.8h278.642c29.15,0,52.783-23.646,52.783-52.8v-278.64H664.224z M1192.112,676.674
	c0-29.138-23.646-52.784-52.784-52.784h-278.64c-29.152,0-52.8,23.646-52.8,52.784v278.64c0,29.152,23.646,52.8,52.8,52.8h278.64
	c29.152,0,52.784-23.646,52.784-52.8V676.674z M1720,676.674c0-29.138-23.634-52.784-52.785-52.784h-278.64
	c-29.151,0-52.785,23.646-52.785,52.784v278.64c0,29.152,23.634,52.8,52.785,52.8h278.64c29.151,0,52.785-23.646,52.785-52.8
	V676.674z M664.224,1204.56c0-29.136-23.632-52.784-52.784-52.784H332.782c-29.136,0-52.782,23.648-52.782,52.784v278.64
	c0,29.152,23.646,52.801,52.782,52.801h278.642c29.15,0,52.783-23.647,52.783-52.801v-278.64H664.224z M1192.112,1204.56
	c0-29.136-23.646-52.784-52.784-52.784h-278.64c-29.152,0-52.8,23.648-52.8,52.784v278.64c0,29.152,23.646,52.801,52.8,52.801
	h278.64c29.152,0,52.784-23.647,52.784-52.801V1204.56z M1720,1204.56c0-29.136-23.634-52.784-52.785-52.784h-278.64
	c-29.151,0-52.785,23.648-52.785,52.784v278.64c0,29.152,23.634,52.801,52.785,52.801h278.64c29.151,0,52.785-23.647,52.785-52.801
	V1204.56z"/>
</svg>
