<?xml version="1.0" encoding="utf-8"?>
<!-- Generator: Adobe Illustrator 16.0.0, SVG Export Plug-In . SVG Version: 6.00 Build 0)  -->
<!DOCTYPE svg PUBLIC "-//W3C//DTD SVG 1.1//EN" "http://www.w3.org/Graphics/SVG/1.1/DTD/svg11.dtd">
<svg version="1.1" id="arrow_left" xmlns="http://www.w3.org/2000/svg" xmlns:xlink="http://www.w3.org/1999/xlink" x="0px" y="0px"
	 width="40px" height="40px" viewBox="328 128 1344 1344" enable-background="new 328 128 1344 1344" xml:space="preserve">
<path fill="#ECF0F1" d="M1118.623,489.377c-12.495-12.496-32.752-12.496-45.248,0l-288,288c-12.495,12.495-12.495,32.752,0,45.247
	l288,288.001c6.257,6.256,14.433,9.375,22.625,9.375c8.191,0,16.367-3.119,22.623-9.375c12.496-12.496,12.496-32.752,0-45.248
	L853.248,800l265.375-265.375C1131.119,522.129,1131.119,501.872,1118.623,489.377z"/>
<path fill="#ECF0F1" d="M1000,128c-364.272,0-672,307.729-672,672c0,364.272,307.728,672,672,672c364.271,0,672-307.728,672-672
	C1672,435.728,1364.272,128,1000,128z M1000,1408c-329.568,0-608-278.432-608-608c0-329.567,278.432-608,608-608
	c329.567,0,608,278.433,608,608C1608,1129.568,1329.568,1408,1000,1408z"/>
</svg>
