<svg version="1.1" id="" xmlns="http://www.w3.org/2000/svg" xmlns:xlink="http://www.w3.org/1999/xlink" x="0px" y="0px"
	 width="18px" height="18px" viewBox="280 80 1440 1440.001" enable-background="new 280 80 1440 1440.001"
	 xml:space="preserve">
<path fill="#2C3E50" d="M999.956,80C602.328,80,280,402.328,280,799.958c0,397.628,322.328,720.043,719.956,720.043
	S1720,1197.586,1720,799.958C1720,402.328,1397.584,80,999.956,80z M999.956,345.453c61.982,0,112.307,50.236,112.307,112.22
	c0,61.982-50.324,112.221-112.307,112.221c-61.981,0-112.22-50.238-112.22-112.221S937.975,345.453,999.956,345.453L999.956,345.453
	z M999.956,644.734c27.43,0,54.72,10.916,73.978,29.593c19.258,18.675,30.238,44.897,29.85,71.121v408.388
	c0.393,26.474-10.781,52.928-30.369,71.642s-47.329,29.469-75.016,29.07c-27.167-0.384-53.922-11.474-72.852-30.108
	c-18.931-18.636-29.804-44.626-29.418-70.604V745.448c-0.388-26.224,10.679-52.446,29.937-71.121
	C945.323,655.65,972.528,644.735,999.956,644.734L999.956,644.734z"/>
</svg>
