<?xml version="1.0" encoding="utf-8"?>
<!-- Generator: Adobe Illustrator 16.0.0, SVG Export Plug-In . SVG Version: 6.00 Build 0)  -->
<!DOCTYPE svg PUBLIC "-//W3C//DTD SVG 1.1//EN" "http://www.w3.org/Graphics/SVG/1.1/DTD/svg11.dtd">
<svg version="1.1" id="Layer_1" xmlns="http://www.w3.org/2000/svg" xmlns:xlink="http://www.w3.org/1999/xlink" x="0px" y="0px"
	 width="392.542px" height="192.221px" viewBox="0 0 392.542 192.221" enable-background="new 0 0 392.542 192.221"
	 xml:space="preserve">
<g>
	<g>
		<path fill="#00AEEF" d="M133.974,62.904h35.441c0-0.754-0.29-1.508-0.864-2.086l-14.773-14.771c-1.149-1.152-3.019-1.152-4.17,0
			l-14.771,14.771C134.261,61.396,133.974,62.15,133.974,62.904z"/>
		<path fill="#00AEEF" d="M112.247,42.398l14.771,14.771c1.151,1.152,3.018,1.152,4.17,0l14.77-14.772
			c1.153-1.149,1.153-3.019,0-4.171l-14.768-14.77c-1.151-1.152-3.021-1.152-4.173-0.001l-14.771,14.771
			C111.093,39.378,111.093,41.248,112.247,42.398z"/>
		<path fill="#00AEEF" d="M123.504,60.683l-14.77-14.771c-1.154-1.152-3.021-1.152-4.171-0.001L89.79,60.681
			c-0.611,0.611-0.888,1.424-0.85,2.223h35.414C124.392,62.105,124.115,61.292,123.504,60.683z"/>
		<path fill="#00AEEF" d="M79.295,62.904c0.078-0.844-0.192-1.713-0.837-2.357L63.687,45.775c-1.153-1.152-3.021-1.152-4.173,0
			l-14.771,14.77c-0.645,0.646-0.916,1.516-0.836,2.359H79.295z"/>
		<path fill="#00AEEF" d="M104.425,34.578c1.152,1.152,3.019,1.152,4.171,0.001l14.77-14.772c1.153-1.15,1.153-3.019,0-4.171
			l-14.77-14.772c-1.152-1.15-3.021-1.15-4.171,0L89.653,15.636c-1.151,1.151-1.151,3.018,0.001,4.169L104.425,34.578z"/>
		<path fill="#00AEEF" d="M81.969,57.031c1.152,1.152,3.021,1.152,4.172,0l14.772-14.771c1.15-1.15,1.15-3.018,0-4.169L86.14,23.32
			c-1.152-1.152-3.019-1.152-4.171,0L67.198,38.09c-1.151,1.151-1.151,3.02,0,4.171L81.969,57.031z"/>
	</g>
	<g>
		<path fill="#81D4F7" d="M133.974,62.904h35.441c0,0.755-0.29,1.51-0.864,2.087l-14.773,14.771c-1.149,1.151-3.019,1.151-4.17,0
			l-14.771-14.771C134.261,64.414,133.974,63.659,133.974,62.904z"/>
		<path fill="#81D4F7" d="M112.247,83.411l14.771-14.771c1.151-1.153,3.018-1.153,4.17,0l14.77,14.771
			c1.153,1.15,1.153,3.018,0,4.17l-14.768,14.77c-1.151,1.153-3.021,1.153-4.173,0.002l-14.771-14.771
			C111.093,86.429,111.093,84.562,112.247,83.411z"/>
		<path fill="#81D4F7" d="M123.504,65.125l-14.77,14.771c-1.154,1.153-3.021,1.153-4.171,0.002L89.79,65.128
			c-0.611-0.613-0.888-1.424-0.85-2.225h35.414C124.392,63.705,124.115,64.515,123.504,65.125z"/>
		<path fill="#81D4F7" d="M79.295,62.904c0.078,0.844-0.192,1.713-0.837,2.36l-14.771,14.77c-1.153,1.152-3.021,1.152-4.173,0
			L44.743,65.263c-0.645-0.646-0.916-1.516-0.836-2.359H79.295z"/>
		<path fill="#81D4F7" d="M104.425,91.231c1.152-1.151,3.019-1.153,4.171-0.001l14.77,14.772c1.153,1.151,1.153,3.019,0,4.171
			l-14.77,14.771c-1.152,1.151-3.021,1.151-4.171,0l-14.772-14.772c-1.151-1.151-1.151-3.019,0.001-4.169L104.425,91.231z"/>
		<path fill="#81D4F7" d="M81.969,68.777c1.152-1.151,3.021-1.151,4.172,0l14.772,14.771c1.15,1.149,1.15,3.018,0,4.169
			L86.14,102.49c-1.152,1.151-3.019,1.151-4.171,0L67.198,87.718c-1.151-1.152-1.151-3.021,0-4.171L81.969,68.777z"/>
	</g>
</g>
<g>
	<path fill="#00AEEF" d="M219.061,101.003v18.081c0,3.034,1.578,4.611,4.733,4.611h30.702c4.368,0,5.461,1.093,5.461,5.461v1.093
		c0,4.368-1.093,5.461-5.461,5.461h-34.343c-9.709,0-13.835-4.127-13.835-13.835V70.665c0-9.708,4.126-13.834,13.835-13.834h34.343
		c4.368,0,5.461,1.092,5.461,5.461v1.092c0,4.369-1.093,5.461-5.461,5.461h-30.702c-3.155,0-4.733,1.578-4.733,4.611v15.533h30.581
		c4.369,0,5.461,1.092,5.461,5.461v1.092c0,4.369-1.092,5.461-5.461,5.461H219.061z"/>
	<path fill="#00AEEF" d="M302.312,56.831c18.81,0,26.576,9.223,26.576,25.727c0,17.11-8.858,25.728-26.576,25.728H282.41v21.844
		c0,4.489-1.092,5.582-5.582,5.582h-1.577c-4.49,0-5.583-1.093-5.583-5.582V70.665c0-9.708,4.126-13.834,13.835-13.834H302.312z
		 M287.143,68.844c-3.155,0-4.733,1.578-4.733,4.611V96.27h19.902c10.314,0,13.834-4.004,13.834-13.713
		c0-9.587-3.52-13.713-13.834-13.713H287.143z"/>
	<path fill="#00AEEF" d="M385.318,56.831c5.218,0,5.824,0.971,3.519,5.704l-11.164,22.571c-0.85,1.82-1.578,3.155-2.063,4.005
		c-0.85,1.578-2.912,4.126-4.976,4.976c3.52,2.063,5.098,4.49,7.16,8.859l13.471,27.062c2.306,4.733,1.698,5.704-3.52,5.704h-1.699
		c-4.976,0-6.675-0.971-8.98-5.704l-10.558-22.571c-1.577-3.277-2.67-5.34-3.519-6.189c-0.729-0.85-1.82-1.335-3.398-1.335
		c-1.577,0-2.791,0.485-3.641,1.335c-0.728,0.85-1.82,2.912-3.397,6.189l-10.558,22.571c-2.306,4.733-4.005,5.704-8.98,5.704h-1.577
		c-5.219,0-5.825-0.971-3.52-5.704l13.349-27.062c2.185-4.369,3.52-6.796,7.038-8.859c-2.063-0.85-4.368-3.883-6.917-8.98
		l-11.043-22.571c-2.306-4.733-1.456-5.704,3.52-5.704h1.577c5.219,0,6.796,1.213,8.859,5.704l8.252,18.203
		c2.791,6.189,4.005,7.403,7.038,7.403c3.034,0,4.126-1.214,6.917-7.403l8.252-18.203c2.063-4.49,3.641-5.704,8.859-5.704H385.318z"
		/>
</g>
<g>
	<path fill="#2C3E50" d="M233.708,159.683c-1.952-2.707-5.793-4.784-10.011-4.784c-4.785,0-7.87,2.14-7.87,5.414
		c0,4.533,5.667,5.604,11.27,7.555c5.604,1.826,11.27,4.533,11.27,11.647c0,3.589-1.322,6.422-4.029,8.625
		c-2.707,2.204-6.296,3.274-10.766,3.274c-6.925,0-12.024-2.267-15.235-6.862l4.092-3.841c2.707,3.589,6.484,5.352,11.207,5.352
		c5.477,0,8.688-2.393,8.688-6.17c0-5.604-8.185-6.988-14.543-9.318c-4.407-1.573-7.996-4.974-7.996-10.073
		c0-3.21,1.322-5.854,3.904-7.932c2.581-2.016,5.98-3.022,10.198-3.022c6.044,0,11.27,2.644,13.852,6.233L233.708,159.683z"/>
	<path fill="#2C3E50" d="M273.431,155.654h-12.843v35.005h-5.666v-35.005h-12.78v-5.352h31.289V155.654z"/>
	<path fill="#2C3E50" d="M296.6,149.547c5.729,0,10.576,2.077,14.669,6.17c4.029,4.092,6.044,9.065,6.044,14.857
		c0,5.729-2.015,10.641-6.044,14.732c-4.093,4.093-8.94,6.107-14.669,6.107c-5.729,0-10.577-2.078-14.606-6.17
		c-4.029-4.093-6.044-9.003-6.044-14.732c0-5.792,2.015-10.766,6.044-14.858C286.023,151.562,290.871,149.547,296.6,149.547z
		 M306.988,181.341c2.833-2.959,4.281-6.548,4.281-10.767c0-4.218-1.448-7.869-4.281-10.892c-2.833-3.021-6.296-4.533-10.388-4.533
		c-4.029,0-7.492,1.512-10.325,4.471c-2.833,3.021-4.281,6.674-4.281,10.892s1.448,7.87,4.281,10.829s6.296,4.47,10.325,4.47
		C300.692,185.811,304.155,184.3,306.988,181.341z"/>
	<path fill="#2C3E50" d="M326.503,190.659v-40.356h14.103c4.47,0,7.995,1.07,10.702,3.274s4.029,5.162,4.029,8.877
		c0,5.729-3.525,9.947-9.381,11.521l10.074,16.684h-6.548l-9.444-15.991h-7.869v15.991H326.503z M332.169,155.402v14.166h8.939
		c4.974,0,8.311-2.833,8.311-7.114s-3.337-7.052-8.311-7.052H332.169z"/>
	<path fill="#2C3E50" d="M365.284,190.659v-40.356h25.623v5.352H370.95v12.088h17.439v5.352H370.95v12.214h19.957v5.352H365.284z"/>
</g>
<path fill="#2C3E50" d="M177,62.341c-2.684-3.321-6.67-5.223-10.942-5.223H39.517l-4.493-22.461
	c-1.311-6.559-7.114-11.315-13.802-11.315H5.629C2.521,23.342,0,25.864,0,28.971s2.521,5.63,5.629,5.63h15.594
	c1.339,0,2.499,0.951,2.764,2.263l19.798,99.008c0.294,1.478,0.82,2.864,1.531,4.126c-3.614,3.1-5.911,7.695-5.911,12.818
	c0,5.971,3.12,11.227,7.812,14.229c-1.387,2.45-2.183,5.277-2.183,8.287c0,9.311,7.577,16.889,16.888,16.889
	c9.31,0,16.888-7.578,16.888-16.889c0-1.973-0.344-3.868-0.969-5.629h46.972c-0.625,1.761-0.969,3.656-0.969,5.629
	c0,9.311,7.577,16.889,16.888,16.889c9.311,0,16.887-7.578,16.887-16.889c0-9.213-7.42-16.724-16.596-16.881
	c-0.097-0.005-0.193-0.007-0.291-0.007h-84.44c-3.101,0-5.629-2.521-5.629-5.629s2.528-5.629,5.629-5.629
	c0.173,0,0.345-0.01,0.514-0.024c0.259,0.014,0.52,0.024,0.781,0.024c0.203,0,0.4-0.012,0.592-0.035l99.575-10.531
	c6.12-0.727,11.022-5.287,12.193-11.344l9.868-51.131C180.71,69.964,179.687,65.664,177,62.341z M67.551,175.333
	c0,3.107-2.528,5.629-5.629,5.629c-3.102,0-5.63-2.521-5.63-5.629c0-3.106,2.528-5.629,5.63-5.629
	C65.023,169.704,67.551,172.226,67.551,175.333z M140.732,180.961c-3.108,0-5.63-2.521-5.63-5.629c0-3.106,2.522-5.629,5.63-5.629
	c3.107,0,5.629,2.522,5.629,5.629C146.361,178.44,143.839,180.961,140.732,180.961z M168.793,71.9l-9.891,51.244
	c-0.242,1.227-1.233,2.149-2.399,2.291l-99.13,10.481c-1.25-0.09-2.303-1.008-2.55-2.251L41.769,68.376h124.289
	c1.171,0,1.875,0.652,2.19,1.047C168.568,69.812,169.058,70.64,168.793,71.9z"/>
</svg>
