<?xml version="1.0" encoding="utf-8"?>
<!-- Generator: Adobe Illustrator 16.0.0, SVG Export Plug-In . SVG Version: 6.00 Build 0)  -->
<!DOCTYPE svg PUBLIC "-//W3C//DTD SVG 1.1//EN" "http://www.w3.org/Graphics/SVG/1.1/DTD/svg11.dtd">
<svg version="1.1"
	 id="Warstwa_1" xmlns:dc="http://purl.org/dc/elements/1.1/" xmlns:cc="http://creativecommons.org/ns#" xmlns:rdf="http://www.w3.org/1999/02/22-rdf-syntax-ns#" xmlns:svg="http://www.w3.org/2000/svg" xmlns:sodipodi="http://sodipodi.sourceforge.net/DTD/sodipodi-0.dtd" xmlns:inkscape="http://www.inkscape.org/namespaces/inkscape"
	 xmlns="http://www.w3.org/2000/svg" xmlns:xlink="http://www.w3.org/1999/xlink" x="0px" y="0px" width="491.103px"
	 height="491.171px" viewBox="175.392 244.453 491.103 491.171" enable-background="new 175.392 244.453 491.103 491.171"
	 xml:space="preserve">
<g>
	<path d="M183.273,244.453c-0.252,0.013-0.504,0.035-0.754,0.068c-4.192,0.801-7.2,4.503-7.125,8.771v473.563
		c0,4.843,3.927,8.769,8.77,8.77h473.563c4.844-0.001,8.77-3.927,8.77-8.77V470.341v-80.022V253.292c0-4.844-3.926-8.77-8.77-8.771
		H184.163C183.867,244.485,183.571,244.461,183.273,244.453z M192.933,262.062h456.023v52.618H192.933V262.062z M218.352,279.532
		c-0.253,0.012-0.504,0.035-0.754,0.068c-4.193,0.8-7.201,4.502-7.126,8.77c0,4.844,3.927,8.77,8.77,8.77c0.001,0,0.001,0,0.001,0
		c4.843,0,8.77-3.926,8.77-8.77l0,0c0-4.843-3.927-8.77-8.77-8.77l0,0C218.947,279.563,218.65,279.54,218.352,279.532z
		 M253.43,279.532c-0.252,0.012-0.503,0.035-0.754,0.068c-4.192,0.8-7.2,4.502-7.125,8.77c0,4.844,3.927,8.77,8.77,8.77l0,0
		c4.844,0,8.77-3.926,8.77-8.77l0,0c0-4.843-3.926-8.77-8.77-8.77l0,0C254.026,279.563,253.728,279.54,253.43,279.532z
		 M288.509,279.532c-0.252,0.012-0.504,0.035-0.754,0.068c-4.192,0.8-7.2,4.502-7.125,8.77c0,4.844,3.926,8.77,8.77,8.77
		c4.843,0,8.769-3.926,8.77-8.77c-0.001-4.843-3.927-8.77-8.77-8.77C289.104,279.563,288.807,279.54,288.509,279.532z
		 M192.933,332.219h456.023v58.1v80.022v247.744H192.933V332.219z M315.742,402.342c-0.194,0.005-0.389,0.017-0.582,0.034
		c-0.183-0.006-0.365-0.006-0.548,0h-8.771h-18.635h-8.77v17.54h8.77h18.635h2.741l43.3,179.778
		c-11.045,5.919-18.635,17.365-18.636,30.693c0.001,19.266,15.818,35.079,35.079,35.079s35.078-15.813,35.079-35.079
		c0-6.365-1.931-12.379-4.934-17.539h44.945c-3.003,5.16-4.934,11.174-4.934,17.539c0.001,19.266,15.818,35.079,35.079,35.079
		s35.078-15.813,35.079-35.079c-0.001-19.264-15.818-35.079-35.079-35.079c-0.728-0.091-1.465-0.091-2.192,0H368.874l-8.222-35.078
		h128.805c3.948,0.196,7.539-2.273,8.771-6.029l33.982-105.236c1.513-4.602-0.99-9.559-5.592-11.071
		c-0.849-0.28-1.736-0.428-2.63-0.438H332.699h-1.645l-6.577-27.953C323.695,405.309,320.008,402.286,315.742,402.342z
		 M335.44,454.994h176.49l-5.48,17.539h-85.505v17.54h79.476l-5.481,17.539h-56.455v17.539h50.426l-5.48,17.54H356.268
		L335.44,454.994z M368.326,612.849c9.776,0,17.539,7.749,17.539,17.539c0,9.791-7.763,17.539-17.539,17.539
		s-17.539-7.748-17.539-17.539C350.787,620.598,358.55,612.849,368.326,612.849z M472.466,612.849h1.097
		c9.776,0,17.539,7.749,17.539,17.539c0,9.791-7.763,17.539-17.539,17.539s-17.539-7.748-17.539-17.539
		C456.024,620.982,463.237,613.422,472.466,612.849z"/>
</g>
</svg>
