<?xml version="1.0" encoding="utf-8"?>
<!-- Generator: Adobe Illustrator 16.0.0, SVG Export Plug-In . SVG Version: 6.00 Build 0)  -->
<!DOCTYPE svg PUBLIC "-//W3C//DTD SVG 1.1//EN" "http://www.w3.org/Graphics/SVG/1.1/DTD/svg11.dtd">
<svg version="1.1" id="Layer_1" xmlns="http://www.w3.org/2000/svg" xmlns:xlink="http://www.w3.org/1999/xlink" x="0px" y="0px"
	 width="13px" height="18px" viewBox="280 80 1390.584 1390.584" enable-background="new 280 80 1390.584 1390.584"
	 xml:space="preserve">
<g>
	<path d="M1661.248,1393.377l-365.521-365.521C1380.688,927.505,1432,797.776,1432,656c0-318.111-257.889-576-576-576
		c-318.112,0-576,257.889-576,576c0,318.112,257.888,576,576,576c141.775,0,271.504-51.312,371.855-136.271l365.52,365.52
		c12.448,12.448,32.816,12.448,45.248,0l22.625-22.623C1673.696,1426.177,1673.696,1405.824,1661.248,1393.377z M376,656
		c0-264.672,215.327-480,480-480c264.672,0,480,215.328,480,480c0,264.673-215.328,480-480,480C591.327,1136,376,920.673,376,656z"
		/>
	<path d="M568,480c0,17.601,14.399,32,32,32h512c17.6,0,32-14.399,32-32v-32c0-17.6-14.4-32-32-32H600c-17.601,0-32,14.4-32,32V480z
		"/>
	<path d="M568,672c0,17.601,14.399,32,32,32h512c17.6,0,32-14.399,32-32v-32c0-17.6-14.4-32-32-32H600c-17.601,0-32,14.4-32,32V672z
		"/>
	<path d="M568,864c0,17.601,14.399,32,32,32h512c17.6,0,32-14.399,32-32v-32c0-17.6-14.4-32-32-32H600c-17.601,0-32,14.4-32,32V864z
		"/>
</g>
</svg>
