<?xml version="1.0" encoding="utf-8"?>
<!-- Generator: Adobe Illustrator 16.0.0, SVG Export Plug-In . SVG Version: 6.00 Build 0)  -->
<!DOCTYPE svg PUBLIC "-//W3C//DTD SVG 1.1//EN" "http://www.w3.org/Graphics/SVG/1.1/DTD/svg11.dtd">
<svg version="1.1" id="services_icon" xmlns="http://www.w3.org/2000/svg" xmlns:xlink="http://www.w3.org/1999/xlink" x="0px" y="0px"
		 width="20px" height="20px" viewbox="611.375 403.912 781.336 782.534"
		 enable-background="new 611.375 403.912 781.336 782.534" xml:space="preserve">
	<path fill="#2C3E50" d="M1385.6,558.4l-161.6,160c0,0-48,0-97.601-48c-48-48-48-97.6-48-97.6L1240,411.2
		c-91.2-22.399-201.601,8-268.801,75.2C870.4,587.2,960,715.2,934.4,740.801C793.6,888,648,1000,644.8,1004.801
		c-43.2,43.199-44.8,112-3.2,152c41.6,41.6,110.4,38.399,152-3.2c4.8-4.8,124.8-156.8,264-296c25.6-25.6,148.8,68.8,252.8-33.6
		C1376,758.4,1408,649.6,1385.6,558.4z M728,1118.4c-25.601,0-46.4-20.8-46.4-46.4c0-27.199,20.8-48,46.4-48
		c25.6,0,46.399,20.801,46.399,46.4S753.6,1118.4,728,1118.4z"/>
</svg>
