<?xml version="1.0" encoding="utf-8"?>
<!-- Generator: Adobe Illustrator 16.0.0, SVG Export Plug-In . SVG Version: 6.00 Build 0)  -->
<!DOCTYPE svg PUBLIC "-//W3C//DTD SVG 1.1//EN" "http://www.w3.org/Graphics/SVG/1.1/DTD/svg11.dtd">
<svg version="1.1"
	 id="Layer_1" xmlns:cc="http://creativecommons.org/ns#" xmlns:dc="http://purl.org/dc/elements/1.1/" xmlns:svg="http://www.w3.org/2000/svg" xmlns:sodipodi="http://sodipodi.sourceforge.net/DTD/sodipodi-0.dtd" xmlns:rdf="http://www.w3.org/1999/02/22-rdf-syntax-ns#" xmlns:inkscape="http://www.inkscape.org/namespaces/inkscape"
	 xmlns="http://www.w3.org/2000/svg" xmlns:xlink="http://www.w3.org/1999/xlink" x="0px" y="0px" width="15px" height="20px"
	 viewBox="200 0.002 1600 1600" enable-background="new 200 0.002 1600 1600" xml:space="preserve">
<g transform="translate(0,-1004.3622)">
	<g>
		<g>
			<g>
				<g>
					<g>
						<g transform="translate(-9.4480086e-4,-1.2002565e-6)">
							<g>
								<path fill="#2C3E50" d="M1000.001,1004.364c-441.628,0-800,358.373-800,800c0,441.63,358.372,800,800,800
									c441.627,0,799.999-358.37,800-800C1800,1362.737,1441.628,1004.364,1000.001,1004.364z M1000.001,1038.087
									c423.404,0,766.275,342.873,766.275,766.276c0,423.406-342.871,766.341-766.275,766.341
									c-423.405,0-766.276-342.935-766.276-766.341C233.725,1380.96,576.596,1038.087,1000.001,1038.087z M548.308,1337.631
									c-0.479,0.023-0.957,0.066-1.432,0.131c-7.969,1.521-13.686,8.556-13.542,16.666v900.001
									c0.001,9.204,7.462,16.665,16.667,16.666h900c9.204-0.001,16.665-7.462,16.666-16.666v-487.5v-152.084v-260.417
									c-0.001-9.204-7.462-16.665-16.666-16.666h-900C549.439,1337.69,548.874,1337.646,548.308,1337.631z M566.667,1371.095
									h866.667v100H566.667V1371.095z M614.975,1404.298c-0.479,0.022-0.957,0.066-1.433,0.13
									c-7.969,1.521-13.686,8.557-13.541,16.667c-0.001,9.205,7.461,16.667,16.666,16.667l0,0c9.205,0,16.667-7.462,16.667-16.667
									l0,0c0-9.204-7.462-16.666-16.667-16.667l0,0C616.106,1404.357,615.54,1404.313,614.975,1404.298z M681.642,1404.298
									c-0.479,0.022-0.957,0.066-1.433,0.13c-7.969,1.521-13.686,8.557-13.542,16.667c0,9.205,7.462,16.667,16.667,16.667l0,0
									c9.204,0,16.667-7.462,16.667-16.667l0,0c0-9.205-7.462-16.667-16.667-16.667l0,0
									C682.773,1404.357,682.207,1404.313,681.642,1404.298z M748.308,1404.298c-0.479,0.022-0.957,0.066-1.432,0.13
									c-7.969,1.521-13.686,8.557-13.542,16.667c0,9.205,7.462,16.666,16.667,16.667c9.204-0.001,16.666-7.462,16.666-16.667
									c0-9.204-7.462-16.666-16.666-16.667C749.439,1404.357,748.874,1404.313,748.308,1404.298z M566.667,1504.429h866.667
									v110.416v152.084v470.833H566.667V1504.429z M800.066,1637.697c-0.369,0.01-0.738,0.031-1.106,0.065
									c-0.348-0.011-0.694-0.011-1.042,0h-16.666h-35.417h-16.667v33.333h16.667h35.417h5.208l82.292,341.667
									c-20.992,11.25-35.417,33.003-35.417,58.333c0,36.613,30.062,66.667,66.667,66.667c36.604,0,66.666-30.054,66.666-66.667
									c0-12.097-3.669-23.526-9.375-33.333h85.417c-5.706,9.807-9.375,21.236-9.375,33.333c0,36.613,30.062,66.667,66.667,66.667
									c36.604,0,66.666-30.054,66.666-66.667c0-36.609-30.062-66.666-66.666-66.666c-1.384-0.175-2.784-0.175-4.167,0H901.042
									l-15.625-66.667h244.792c7.503,0.373,14.327-4.319,16.667-11.458l64.583-200c2.876-8.745-1.882-18.166-10.626-21.042
									c-1.614-0.531-3.3-0.813-4.999-0.833H832.292h-3.125l-12.5-53.125C815.179,1643.334,808.172,1637.591,800.066,1637.697z
									 M837.501,1737.762h335.416l-10.416,33.333h-162.5v33.334h151.041l-10.416,33.333h-107.292v33.333h95.833l-10.416,33.334
									H877.084L837.501,1737.762z M900.001,2037.762c18.58,0,33.333,14.727,33.333,33.333s-14.753,33.334-33.333,33.334
									s-33.334-14.728-33.334-33.334S881.421,2037.762,900.001,2037.762z M1097.917,2037.762h2.084
									c18.58,0,33.333,14.727,33.333,33.333s-14.753,33.334-33.333,33.334s-33.334-14.728-33.334-33.334
									C1066.667,2053.219,1080.375,2038.852,1097.917,2037.762z"/>
							</g>
						</g>
					</g>
				</g>
			</g>
		</g>
	</g>
</g>
</svg>
