<?xml version="1.0" encoding="utf-8"?>
<!-- Generator: Adobe Illustrator 16.0.0, SVG Export Plug-In . SVG Version: 6.00 Build 0)  -->
<!DOCTYPE svg PUBLIC "-//W3C//DTD SVG 1.1//EN" "http://www.w3.org/Graphics/SVG/1.1/DTD/svg11.dtd">
<svg version="1.1"
	 id="Layer_1" xmlns:cc="http://creativecommons.org/ns#" xmlns:dc="http://purl.org/dc/elements/1.1/" xmlns:svg="http://www.w3.org/2000/svg" xmlns:sodipodi="http://sodipodi.sourceforge.net/DTD/sodipodi-0.dtd" xmlns:rdf="http://www.w3.org/1999/02/22-rdf-syntax-ns#" xmlns:inkscape="http://www.inkscape.org/namespaces/inkscape"
	 xmlns="http://www.w3.org/2000/svg" xmlns:xlink="http://www.w3.org/1999/xlink" x="0px" y="0px" width="1439.999px"
	 height="1280px" viewBox="280 160 1439.999 1280" enable-background="new 280 160 1439.999 1280" xml:space="preserve">
<g transform="translate(0,-952.36218)">
	<path fill="#2C3E50" d="M312,1112.362c-17.709,0.281-32.022,14.483-32,32c0.166,17.553,13.387,31.993,32,32h151.002
		c72.328,281.785,124.31,576.137,183.502,870c2.77,14.504,16.734,26.03,31.5,26h868.01c14.766,0,28.73-11.496,31.5-26l142.002-704
		c3.521-18.456-12.711-38.037-31.5-38H561.003l-42.001-168c-3.518-13.618-16.935-24.006-31-24H312L312,1112.362z M575.003,1368.362
		h1074.013l-129.002,640h-816.01L575.003,1368.362L575.003,1368.362z M896.007,2120.362c-74.732,0-136.002,61.27-136.002,136
		s61.27,136,136.002,136s136.001-61.27,136.001-136S970.74,2120.362,896.007,2120.362z M1328.012,2120.362
		c-74.732,0-136.002,61.27-136.002,136s61.27,136,136.002,136s136.001-61.27,136.001-136S1402.744,2120.362,1328.012,2120.362z
		 M896.007,2184.362c40.144,0,72.001,31.855,72.001,72s-31.857,72-72.001,72s-72.001-31.855-72.001-72
		S855.864,2184.362,896.007,2184.362z M1328.012,2184.362c40.144,0,72,31.855,72,72s-31.856,72-72,72
		c-40.145,0-72.001-31.855-72.001-72S1287.867,2184.362,1328.012,2184.362z"/>
</g>
</svg>
