<?xml version="1.0" encoding="utf-8"?>
<!-- Generator: Adobe Illustrator 16.0.0, SVG Export Plug-In . SVG Version: 6.00 Build 0)  -->
<!DOCTYPE svg PUBLIC "-//W3C//DTD SVG 1.1//EN" "http://www.w3.org/Graphics/SVG/1.1/DTD/svg11.dtd">
<svg version="1.1" id="Layer_1" xmlns="http://www.w3.org/2000/svg" xmlns:xlink="http://www.w3.org/1999/xlink" x="0px" y="0px"
	 width="1160px" height="1160px" viewBox="424 221.328 1160 1160" enable-background="new 424 221.328 1160 1160"
	 xml:space="preserve">
<g>
	<path fill="#2C3E50" d="M1004,221.328c-319.809,0-580,260.192-580,580c0,319.809,260.191,580,580,580
		c319.808,0,580-260.191,580-580C1584,481.52,1323.808,221.328,1004,221.328z M1004,1333.328c-293.345,0-532-238.655-532-532
		c0-293.344,238.655-532,532-532c293.344,0,532,238.672,532,532C1536,1094.673,1297.344,1333.328,1004,1333.328z"/>
	<path fill="#2C3E50" d="M1000,353.328c-247.024,0-448,200.977-448,448c0,247.024,200.976,448,448,448
		c247.023,0,448-200.976,448-448C1448,554.304,1247.024,353.328,1000,353.328z M1000,1201.328c-220.561,0-400-179.439-400-400
		c0-220.56,179.439-400,400-400c220.56,0,400,179.44,400,400C1400,1021.888,1220.56,1201.328,1000,1201.328z"/>
	<path fill="#2C3E50" d="M727.44,529.072l34.032,33.856c7.28-7.313,14.944-14.336,22.784-20.896l-30.769-36.848
		C744.528,512.688,735.76,520.72,727.44,529.072z"/>
	<path fill="#2C3E50" d="M704.703,1044.192c7.488,8.992,15.504,17.76,23.872,26.096l33.889-34
		c-7.313-7.279-14.337-14.976-20.864-22.815L704.703,1044.192z"/>
	<path fill="#2C3E50" d="M968.32,1133.12l-4.304,48.32c11.552,1.024,23.28,2.56,34.864,2.56h0.368l-0.368-48.752
		C988.736,1135.248,978.448,1134.032,968.32,1133.12z"/>
	<path fill="#2C3E50" d="M616,799.12v0.736l48-0.736c0-10.096,0.447-20.256,1.344-30.208l-47.809-4.288
		C616.512,776,616,787.6,616,799.12z"/>
	<path fill="#2C3E50" d="M1234.832,561.456c7.312,7.248,14.336,14.912,20.928,22.769l36.815-30.816
		c-7.52-8.992-15.584-17.744-23.92-26.031L1234.832,561.456z"/>
	<path fill="#2C3E50" d="M1212.959,1056.673l30.753,36.848c9.056-7.552,17.823-15.568,26.063-23.792l-33.936-33.936
		C1228.608,1043.009,1220.911,1050.032,1212.959,1056.673z"/>
	<path fill="#2C3E50" d="M1335.168,799.12c0,10.225-1.297,20.641-2.24,30.929l48.352,4.319c1.072-11.728,2.721-23.584,2.721-35.248
		v-1.504L1335.168,799.12z"/>
	<path fill="#2C3E50" d="M997.76,416l1.12,48.112c9.936,0,19.983,0.561,29.855,1.424l4.224-47.936
		c-11.264-0.977-22.72-1.601-34.063-1.601H997.76z"/>
	<path fill="#2C3E50" d="M1008,504c-13.265,0-24,10.736-24,24v256H872c-13.265,0-24,10.736-24,24c0,13.248,10.735,24,24,24h128
		c0,0,15.504,2,24.495-10.495c6.257-6,7.505-21.505,7.505-21.505V528C1032,514.736,1021.248,504,1008,504z"/>
</g>
</svg>
