<?xml version="1.0" encoding="utf-8"?>
<!-- Generator: Adobe Illustrator 16.0.0, SVG Export Plug-In . SVG Version: 6.00 Build 0)  -->
<!DOCTYPE svg PUBLIC "-//W3C//DTD SVG 1.1//EN" "http://www.w3.org/Graphics/SVG/1.1/DTD/svg11.dtd">
<svg version="1.1" id="user_icon" xmlns="http://www.w3.org/2000/svg" xmlns:xlink="http://www.w3.org/1999/xlink" x="0px" y="0px"
	 width="15px" height="20px" viewBox="200.666 0 1598.667 1600.067"
	 enable-background="new 200.666 0 1598.667 1600.067" xml:space="preserve">
<g>
	<g>
		<path fill="#2C3E50" d="M1000.666,1400H367.333c-55.134,0-100-44.866-100-100V333.334h1333.333V800
			c0,18.4,14.934,33.334,33.334,33.334c18.399,0,33.333-14.934,33.333-33.334V166.667C1667.333,74.801,1592.6,0,1500.666,0H367.333
			C275.4,0,200.666,74.801,200.666,166.667V1300c0,91.867,74.733,166.667,166.667,166.667h633.333
			c18.4,0,33.334-14.934,33.334-33.333C1034,1414.933,1019.067,1400,1000.666,1400z M634,133.334
			c18.399,0,33.333,14.933,33.333,33.333S652.4,200,634,200c-18.4,0-33.334-14.933-33.334-33.333S615.6,133.334,634,133.334z
			 M500.666,133.334c18.4,0,33.334,14.933,33.334,33.333S519.067,200,500.666,200c-18.399,0-33.333-14.933-33.333-33.333
			S482.266,133.334,500.666,133.334z M367.333,133.334c18.399,0,33.333,14.933,33.333,33.333S385.733,200,367.333,200
			c-18.4,0-33.333-14.933-33.333-33.333S348.933,133.334,367.333,133.334z M1661.6,1390.267l-100.066-25l-4.134-16.733
			c26-28.667,44.399-65.267,52-103.2c17.8-9.2,30.733-26.667,33.399-47.667l7.201-58c2.199-17.6-3.201-35.267-14.867-48.6
			c-3.666-4.134-7.733-7.733-12.2-10.733L1624.6,1045l6.133-6.133c17.2-18.267,40.4-57.267,3.601-113.533
			c-17.467-26.867-53.4-58.667-125.467-58.667c-21.2,0-69.134,0-115.667,29.2c-137.2,4.8-153.333,78.733-153.333,134.6
			c0,11,1.934,31.601,3.866,48.801c-4.934,3.133-9.467,6.933-13.333,11.399c-11.866,13.4-17.4,31.2-15.2,49l7.267,58
			c2.733,21.733,16.533,39.733,36.867,48.601c7.467,36.333,24.866,71.533,49.2,99.466l-4.867,19.601l-100.066,25
			c-81.066,20.267-137.6,92.8-137.6,176.4c0,18.399,14.933,33.333,33.333,33.333H1766c18.399,0,33.333-15,33.333-33.4
			C1799.333,1483,1742.666,1410.4,1661.6,1390.267z"/>
	</g>
</g>
</svg>
